<mxfile host="app.diagrams.net" modified="2022-02-21T08:03:39.361Z" agent="5.0 (Windows NT 10.0; Win64; x64) AppleWebKit/537.36 (KHTML, like Gecko) Chrome/98.0.4758.102 Safari/537.36 Edg/98.0.1108.56" etag="vSOX6O8pPUiM7oeTr-8O" version="16.6.1" type="github">
  <diagram id="6BmZMtqxhM6QvQXqpz7c" name="Page-1">
    <mxGraphModel dx="868" dy="482" grid="1" gridSize="10" guides="1" tooltips="1" connect="1" arrows="1" fold="1" page="1" pageScale="1" pageWidth="827" pageHeight="1169" math="0" shadow="0">
      <root>
        <mxCell id="0" />
        <mxCell id="1" parent="0" />
        <mxCell id="8bqlW5B6ukZaVMm8iv8_-1" value="开发态" style="rounded=0;whiteSpace=wrap;html=1;align=left;" vertex="1" parent="1">
          <mxGeometry x="110" y="190" width="360" height="120" as="geometry" />
        </mxCell>
        <mxCell id="8bqlW5B6ukZaVMm8iv8_-2" value="可视化函数编排" style="rounded=0;whiteSpace=wrap;html=1;fillColor=#dae8fc;strokeColor=#6c8ebf;shadow=1;" vertex="1" parent="1">
          <mxGeometry x="170" y="210" width="270" height="80" as="geometry" />
        </mxCell>
        <mxCell id="8bqlW5B6ukZaVMm8iv8_-3" value="运行态" style="rounded=0;whiteSpace=wrap;html=1;align=left;" vertex="1" parent="1">
          <mxGeometry x="110" y="320" width="360" height="120" as="geometry" />
        </mxCell>
        <mxCell id="8bqlW5B6ukZaVMm8iv8_-4" value="函数引擎" style="rounded=0;whiteSpace=wrap;html=1;fillColor=#dae8fc;strokeColor=#6c8ebf;shadow=1;" vertex="1" parent="1">
          <mxGeometry x="170" y="350" width="270" height="80" as="geometry" />
        </mxCell>
      </root>
    </mxGraphModel>
  </diagram>
</mxfile>
